HIERARCHY
ROOT Hips
{
	OFFSET 0.000000 0.000000 0.000000
	CHANNELS 6 Xposition Yposition Zposition Zrotation Yrotation Xrotation 
	JOINT LHipJoint
	{
		OFFSET 0.000000 0.000000 0.000000
		CHANNELS 3 Zrotation Yrotation Xrotation
		JOINT LeftUpLeg
		{
			OFFSET 1.363060 -1.794630 0.839290
			CHANNELS 3 Zrotation Yrotation Xrotation
			JOINT LeftLeg
			{
				OFFSET 2.448110 -6.726130 0.000000
				CHANNELS 3 Zrotation Yrotation Xrotation
				JOINT LeftFoot
				{
					OFFSET 2.562200 -7.039590 0.000000
					CHANNELS 3 Zrotation Yrotation Xrotation
					JOINT LeftToeBase
					{
						OFFSET 0.157640 -0.433110 2.322550
						CHANNELS 3 Zrotation Yrotation Xrotation
						End Site
						{
							OFFSET 0.000000 0.000000 0.000000
						}
					}
				}
			}
		}
	}
	JOINT RHipJoint
	{
		OFFSET 0.000000 0.000000 0.000000
		CHANNELS 3 Zrotation Yrotation Xrotation
		JOINT RightUpLeg
		{
			OFFSET -1.305520 -1.794630 0.839290
			CHANNELS 3 Zrotation Yrotation Xrotation
			JOINT RightLeg
			{
				OFFSET -2.542530 -6.985550 0.000000
				CHANNELS 3 Zrotation Yrotation Xrotation
				JOINT RightFoot
				{
					OFFSET -2.568260 -7.056230 0.000000
					CHANNELS 3 Zrotation Yrotation Xrotation
					JOINT RightToeBase
					{
						OFFSET -0.164730 -0.452590 2.363150
						CHANNELS 3 Zrotation Yrotation Xrotation
						End Site
						{
							OFFSET 0.000000 0.000000 0.000000
						}
					}
				}
			}
		}
	}
	JOINT LowerBack
	{
		OFFSET 0.000000 0.000000 0.000000
		CHANNELS 3 Zrotation Yrotation Xrotation
		JOINT Spine
		{
			OFFSET 0.028270 2.035590 -0.193380
			CHANNELS 3 Zrotation Yrotation Xrotation
			JOINT Spine1
			{
				OFFSET 0.056720 2.048850 -0.042750
				CHANNELS 3 Zrotation Yrotation Xrotation
				JOINT Neck
				{
					OFFSET 0.000000 0.000000 0.000000
					CHANNELS 3 Zrotation Yrotation Xrotation
					JOINT Neck1
					{
						OFFSET -0.054170 1.746240 0.172020
						CHANNELS 3 Zrotation Yrotation Xrotation
						JOINT Head
						{
							OFFSET 0.104070 1.761360 -0.123970
							CHANNELS 3 Zrotation Yrotation Xrotation
							End Site
							{
								OFFSET 0.000000 0.000000 0.000000
							}
						}
					}
				}
				JOINT LeftShoulder
				{
					OFFSET 0.000000 0.000000 0.000000
					CHANNELS 3 Zrotation Yrotation Xrotation
					JOINT LeftArm
					{
						OFFSET 3.362410 1.200890 -0.311210
						CHANNELS 3 Zrotation Yrotation Xrotation
						JOINT LeftForeArm
						{
							OFFSET 4.983000 -0.000000 -0.000000
							CHANNELS 3 Zrotation Yrotation Xrotation
							JOINT LeftHand
							{
								OFFSET 3.483560 -0.000000 -0.000000
								CHANNELS 3 Zrotation Yrotation Xrotation
								JOINT LeftFingerBase
								{
									OFFSET 0.000000 0.000000 0.000000
									CHANNELS 3 Zrotation Yrotation Xrotation
									JOINT LeftHandIndex1
									{
										OFFSET 0.715260 -0.000000 -0.000000
										CHANNELS 3 Zrotation Yrotation Xrotation
										End Site
										{
											OFFSET 0.000000 0.000000 0.000000
										}
									}
								}
								JOINT LThumb
								{
									OFFSET 0.000000 0.000000 0.000000
									CHANNELS 3 Zrotation Yrotation Xrotation
									End Site
									{
										OFFSET 0.000000 0.000000 0.000000
									}
								}
							}
						}
					}
				}
				JOINT RightShoulder
				{
					OFFSET 0.000000 0.000000 0.000000
					CHANNELS 3 Zrotation Yrotation Xrotation
					JOINT RightArm
					{
						OFFSET -3.136600 1.374050 -0.404650
						CHANNELS 3 Zrotation Yrotation Xrotation
						JOINT RightForeArm
						{
							OFFSET -5.241900 -0.000000 -0.000000
							CHANNELS 3 Zrotation Yrotation Xrotation
							JOINT RightHand
							{
								OFFSET -3.444170 -0.000000 -0.000000
								CHANNELS 3 Zrotation Yrotation Xrotation
								JOINT RightFingerBase
								{
									OFFSET 0.000000 0.000000 0.000000
									CHANNELS 3 Zrotation Yrotation Xrotation
									JOINT RightHandIndex1
									{
										OFFSET -0.622530 -0.000000 -0.000000
										CHANNELS 3 Zrotation Yrotation Xrotation
										End Site
										{
											OFFSET 0.000000 0.000000 0.000000
										}
									}
								}
								JOINT RThumb
								{
									OFFSET 0.000000 0.000000 0.000000
									CHANNELS 3 Zrotation Yrotation Xrotation
									End Site
									{
										OFFSET 0.000000 0.000000 0.000000
									}
								}
							}
						}
					}
				}
			}
		}
	}
}
MOTION
Frames: 4
Frame Time: 0.008333
2.161679 16.459266 1.211547 17.004395 71.511308 43.306157 -7.228589 -0.782209 0.080358 -10.638944 -3.503922 -51.265987 -2.853091 1.009960 25.893296 0.141582 0.332028 0.933377 0.394099 0.000000 -38.770200 12.670255 -1.069850 -2.295438 3.843688 0.276653 -20.020017 0.447759 -3.533218 47.836964 0.734541 9.827834 -0.592693 1.039000 0.000001 -68.664600 -9.425399 0.718347 4.491388 -3.111429 1.141419 -2.368852 -7.112893 1.072113 -0.345084 9.325086 1.739910 2.674399 -4.196446 -0.405670 2.354052 0.000000 0.000000 0.000000 -6.983816 2.515453 2.873141 -65.342382 19.159846 11.344831 -3.583660 -15.384337 -0.006907 -1.987678 4.583992 -0.079700 -0.041671 -0.086151 -0.000000 0.000000 0.000000 0.000000 0.000000 0.000000 0.000000 17.100047 4.156611 -2.729781 86.839498 28.247686 39.954577 0.734635 73.704348 0.004859 0.605952 12.984790 0.073532 -0.008581 -0.502223 -0.000000 0.000000 0.000000 0.000000 0.000000 0.000000 0.000000 
2.314373 16.393002 1.262877 18.518202 71.012012 44.368980 -7.092146 -0.663962 -0.206684 -11.757042 -3.301763 -51.642334 -2.770004 1.292708 29.052327 0.214711 0.599253 -0.036088 0.391700 0.000000 -38.097000 13.018430 -0.997171 -2.431982 3.030079 -0.552902 -20.636275 0.144497 -3.756266 50.401490 0.574157 8.884804 0.760432 1.176501 0.000000 -69.821300 -9.925231 0.701858 4.903057 -3.218456 1.137905 -2.328824 -7.142839 1.068279 -0.504997 9.194230 2.162308 2.902014 -4.290251 -0.412575 2.398489 0.000000 0.000000 0.000000 -7.296240 1.978500 2.942937 -64.811384 18.684677 12.604204 -3.623764 -14.958514 -0.007279 -2.327575 4.621707 -0.094305 -0.041087 -0.083026 0.000000 0.000000 0.000000 0.000000 0.000000 0.000000 0.000000 17.432517 4.508659 -2.717972 86.734788 28.181336 39.213128 0.735577 73.132506 0.002664 0.454264 13.354637 0.057499 -0.012017 -0.505077 -0.000000 0.000000 0.000000 0.000000 0.000000 0.000000 0.000000 
2.462635 16.338297 1.312793 19.812320 70.493460 45.203707 -6.959626 -0.560272 -0.489924 -12.753959 -3.136256 -51.730875 -2.692667 1.515639 31.797115 0.309745 0.964075 -1.275955 0.381599 0.000000 -37.717800 13.333847 -0.900604 -2.578001 2.291987 -1.269721 -21.227485 -0.167161 -3.964222 52.888803 0.376313 7.724192 2.359847 1.283801 -0.000000 -69.797200 -10.345733 0.714609 5.354620 -3.309719 1.158319 -2.273159 -7.158587 1.089052 -0.637483 9.015706 2.618246 3.166186 -4.392938 -0.419795 2.448841 0.000000 0.000000 0.000000 -7.667217 1.487283 2.997757 -64.255720 17.823450 13.866818 -3.660311 -14.258428 -0.007462 -2.600541 4.667068 -0.106400 -0.040964 -0.078058 0.000000 0.000000 0.000000 0.000000 0.000000 0.000000 0.000000 17.750905 4.858521 -2.720559 86.590117 28.094193 38.329650 0.741353 72.294547 -0.000160 0.198579 13.760082 0.027365 -0.014044 -0.505226 -0.000000 0.000000 0.000000 0.000000 0.000000 0.000000 0.000000 
2.607132 16.296220 1.360900 20.889083 69.976261 45.814687 -6.837224 -0.470040 -0.761359 -13.610697 -3.019374 -51.524197 -2.628096 1.679177 34.082159 0.424169 1.413195 -2.708628 0.353800 -0.000000 -37.685700 13.609761 -0.782524 -2.734855 1.653526 -1.880489 -21.784654 -0.474694 -4.153507 55.268491 0.139802 6.339054 4.131902 1.317600 0.000000 -68.720100 -10.674119 0.755037 5.837448 -3.381805 1.201406 -2.201422 -7.157406 1.133272 -0.734956 8.796468 3.090893 3.459470 -4.500560 -0.426967 2.503582 0.000000 0.000000 0.000000 -8.075776 1.054587 3.034815 -63.713407 16.560524 15.041871 -3.690746 -13.282150 -0.007360 -2.750417 4.733124 -0.113984 -0.041238 -0.070895 0.000000 0.000000 0.000000 0.000000 0.000000 0.000000 0.000000 18.040151 5.186201 -2.738200 86.405340 27.982442 37.306762 0.750041 71.188206 -0.003579 -0.170399 14.179018 -0.019370 -0.014464 -0.502178 -0.000000 0.000000 0.000000 0.000000 0.000000 0.000000 0.000000 
